<svg width="27" height="22" viewBox="0 0 27 22" fill="none" xmlns="http://www.w3.org/2000/svg">
<path d="M24.1071 3.85714H20.5513C20.3705 3.85714 20.1463 3.74022 19.9716 3.5558L18.4082 1.08844C18.3835 1.04928 18.3559 1.01201 18.3256 0.976942C17.7856 0.347143 17.0558 0 16.2723 0H10.7277C9.9442 0 9.21435 0.347143 8.67435 0.976942C8.64411 1.01201 8.61651 1.04928 8.59179 1.08844L7.02844 3.55942C6.89464 3.70527 6.70661 3.86076 6.50893 3.86076V3.37862C6.50893 3.12287 6.40733 2.8776 6.2265 2.69676C6.04566 2.51592 5.80039 2.41433 5.54464 2.41433H4.09821C3.84247 2.41433 3.5972 2.51592 3.41636 2.69676C3.23552 2.8776 3.13393 3.12287 3.13393 3.37862V3.86076H2.89286C2.12587 3.86156 1.39052 4.1666 0.848179 4.70894C0.305836 5.25128 0.000797701 5.98663 0 6.75362V18.3214C0.000797701 19.0884 0.305836 19.8238 0.848179 20.3661C1.39052 20.9084 2.12587 21.2135 2.89286 21.2143H24.1071C24.8741 21.2135 25.6095 20.9084 26.1518 20.3661C26.6942 19.8238 26.9992 19.0884 27 18.3214V6.75C26.9992 5.98301 26.6942 5.24766 26.1518 4.70532C25.6095 4.16298 24.8741 3.85794 24.1071 3.85714ZM13.5 17.3571C12.3557 17.3571 11.2371 17.0178 10.2856 16.3821C9.33417 15.7463 8.5926 14.8427 8.1547 13.7855C7.71679 12.7283 7.60221 11.565 7.82546 10.4427C8.0487 9.32037 8.59974 8.28946 9.40888 7.48031C10.218 6.67116 11.2489 6.12013 12.3713 5.89689C13.4936 5.67364 14.6569 5.78822 15.7141 6.22613C16.7713 6.66403 17.6749 7.4056 18.3106 8.35706C18.9464 9.30851 19.2857 10.4271 19.2857 11.5714C19.284 13.1054 18.6738 14.576 17.5892 15.6606C16.5045 16.7453 15.0339 17.3554 13.5 17.3571Z" fill="white"/>
</svg>
