<svg width="30" height="30" viewBox="0 0 30 30" fill="none" xmlns="http://www.w3.org/2000/svg">
<path d="M15 0C6.71611 0 0 6.71611 0 15C0 23.2839 6.71611 30 15 30C23.2839 30 30 23.2839 30 15C30 6.71611 23.2839 0 15 0ZM21.9231 17.3077H15C14.694 17.3077 14.4005 17.1861 14.1841 16.9697C13.9677 16.7534 13.8462 16.4599 13.8462 16.1538V5.76923C13.8462 5.46321 13.9677 5.16973 14.1841 4.95334C14.4005 4.73695 14.694 4.61538 15 4.61538C15.306 4.61538 15.5995 4.73695 15.8159 4.95334C16.0323 5.16973 16.1538 5.46321 16.1538 5.76923V15H21.9231C22.2291 15 22.5226 15.1216 22.739 15.338C22.9554 15.5543 23.0769 15.8478 23.0769 16.1538C23.0769 16.4599 22.9554 16.7534 22.739 16.9697C22.5226 17.1861 22.2291 17.3077 21.9231 17.3077Z" fill="white"/>
</svg>
