<svg width="25" height="21" viewBox="0 0 25 21" fill="none" xmlns="http://www.w3.org/2000/svg">
<path d="M6.97423 3.95924L6.96307 9.60001L15.2816 9.61646L12.43 6.753C12.2744 6.58862 12.1892 6.36998 12.1926 6.1437C12.1959 5.91741 12.2875 5.70138 12.4479 5.54168C12.6082 5.38197 12.8246 5.29121 13.0509 5.28876C13.2772 5.28631 13.4955 5.37236 13.6593 5.52856L17.9897 9.87619C18.152 10.0392 18.2429 10.2601 18.2425 10.4901C18.242 10.7202 18.1502 10.9407 17.9873 11.1031L13.6397 15.4335C13.4753 15.5891 13.2566 15.6743 13.0304 15.6709C12.8041 15.6676 12.5881 15.576 12.4283 15.4156C12.2686 15.2553 12.1779 15.0389 12.1754 14.8126C12.173 14.5863 12.259 14.368 12.4152 14.2042L15.2781 11.3521L6.95964 11.3356L6.94849 16.9764C6.94776 17.7817 7.26651 18.5544 7.83481 19.1249C8.40311 19.6955 9.17453 20.0173 9.97981 20.0197L21.2613 20.042C22.0666 20.0428 22.8393 19.724 23.4099 19.1557C23.9804 18.5874 24.3022 17.816 24.3047 17.0107L24.3304 3.99357C24.3312 3.18828 24.0124 2.41559 23.4441 1.84504C22.8758 1.27449 22.1044 0.95268 21.2991 0.950225L10.0176 0.927914C9.21228 0.927184 8.43959 1.24594 7.86904 1.81423C7.29849 2.38253 6.97668 3.15396 6.97423 3.95924ZM0.888405 9.58799C0.658247 9.58754 0.437335 9.67853 0.274268 9.84096C0.1112 10.0034 0.0193337 10.2239 0.0188785 10.4541C0.0184233 10.6842 0.109416 10.9052 0.271841 11.0682C0.434265 11.2313 0.654815 11.3232 0.884972 11.3236L6.95964 11.3356L6.96307 9.60001L0.888405 9.58799Z" fill="#002541"/>
</svg>
