<svg width="50" height="50" viewBox="0 0 50 50" fill="none" xmlns="http://www.w3.org/2000/svg">
<circle cx="25" cy="25" r="25" fill="#00253F"/>
<path d="M29.0003 16.4545C28.1115 15.5165 26.8702 15 25.5 15C24.1225 15 22.8771 15.5134 21.9924 16.4455C21.0981 17.3879 20.6624 18.6687 20.7647 20.0518C20.9675 22.7803 23.0917 24.9999 25.5 24.9999C27.9083 24.9999 30.0288 22.7808 30.2348 20.0526C30.3385 18.6821 29.9 17.404 29.0003 16.4545ZM33.5382 34.9999H17.4618C17.2513 35.0026 17.0429 34.9594 16.8518 34.8734C16.6606 34.7874 16.4914 34.6609 16.3565 34.503C16.0596 34.1561 15.94 33.6825 16.0286 33.2035C16.414 31.1133 17.617 29.3575 19.5079 28.1249C21.1877 27.0307 23.3155 26.4285 25.5 26.4285C27.6845 26.4285 29.8123 27.0312 31.4921 28.1249C33.383 29.3571 34.586 31.1129 34.9714 33.203C35.06 33.682 34.9404 34.1557 34.6435 34.5026C34.5087 34.6606 34.3395 34.7872 34.1483 34.8732C33.9571 34.9592 33.7487 35.0025 33.5382 34.9999Z" fill="white"/>
</svg>
