<svg width="23" height="20" viewBox="0 0 23 20" fill="none" xmlns="http://www.w3.org/2000/svg">
<path d="M22.2877 3.58179C22.2357 3.47113 22.1589 3.37493 22.0638 3.30121C21.9686 3.22749 21.8578 3.17839 21.7405 3.158C21.6233 3.1376 21.5031 3.14651 21.3898 3.18398C21.2766 3.22144 21.1737 3.28638 21.0896 3.37338L18.8259 5.71627C18.7335 5.81054 18.609 5.86339 18.4793 5.86339C18.3496 5.86339 18.2251 5.81054 18.1328 5.71627L17.1379 4.68659C17.0469 4.59089 16.9959 4.46199 16.9959 4.32771C16.9959 4.19343 17.0469 4.06454 17.1379 3.96883L19.3897 1.63785C19.4759 1.54868 19.5396 1.43903 19.5753 1.31847C19.6111 1.19792 19.6177 1.07013 19.5947 0.946299C19.5717 0.822466 19.5197 0.706355 19.4433 0.608122C19.3669 0.50989 19.2684 0.432528 19.1565 0.382804C17.399 -0.395872 15.214 0.0415604 13.8456 1.44959C12.6591 2.66845 12.3041 4.56429 12.8719 6.65756C12.8964 6.74739 12.8963 6.8425 12.8716 6.93228C12.8469 7.02205 12.7986 7.10296 12.7321 7.16599L5.08 14.5245C4.8265 14.7605 4.62208 15.0475 4.4792 15.3679C4.33632 15.6884 4.25797 16.0356 4.24893 16.3884C4.23989 16.7411 4.30034 17.0921 4.42661 17.42C4.55287 17.7478 4.7423 18.0456 4.98336 18.2952C5.22442 18.5448 5.51206 18.741 5.82876 18.8719C6.14545 19.0027 6.48457 19.0655 6.82544 19.0563C7.16632 19.0471 7.50183 18.9662 7.81152 18.8185C8.1212 18.6707 8.39859 18.4593 8.62678 18.1971L15.8004 10.2637C15.8605 10.1964 15.9371 10.1473 16.0221 10.1218C16.1071 10.0962 16.1973 10.0951 16.2828 10.1185C18.2744 10.6682 20.089 10.3018 21.2587 9.11084C21.9314 8.42378 22.401 7.4541 22.5815 6.37586C22.751 5.359 22.6439 4.34031 22.2877 3.58179Z" fill="#002541"/>
<path d="M19.355 15.1343C18.738 14.6034 17.4201 13.3754 16.0769 12.1011L13.1528 15.3353C14.4026 16.7095 15.5338 17.9851 16.0295 18.582L16.0326 18.5856C16.1517 18.7267 16.2973 18.841 16.4607 18.9217C16.624 19.0023 16.8015 19.0476 16.9824 19.0547H17.031C17.3788 19.0536 17.7123 18.9119 17.9604 18.6598L17.9635 18.6566L19.4431 17.1281C19.5716 16.9954 19.6719 16.8364 19.7376 16.6612C19.8033 16.4861 19.8329 16.2986 19.8246 16.1109C19.8163 15.9232 19.7702 15.7394 19.6892 15.5712C19.6083 15.403 19.4943 15.2542 19.3545 15.1343H19.355ZM5.24622 7.62873C5.24695 7.45489 5.20098 7.28426 5.11345 7.13588C5.10119 7.11581 5.09464 7.09258 5.09454 7.06884C5.09445 7.04509 5.10082 7.02181 5.11292 7.00164C5.12502 6.98147 5.14236 6.96523 5.16296 6.95479C5.18356 6.94434 5.20659 6.94011 5.2294 6.94258H5.23206C5.26924 6.94671 5.46795 6.97648 5.74987 7.15374C5.95921 7.2852 6.55668 7.70706 7.59672 8.78163C7.58565 9.14762 7.6987 9.50607 7.91626 9.79483L10.8474 6.97556C10.5878 6.72115 10.2486 6.57162 9.89146 6.55416C9.88813 6.5504 9.88502 6.54642 9.88217 6.54225L9.8534 6.51065L8.76733 4.96062C8.64659 4.79095 8.56741 4.5935 8.53658 4.3852C8.50574 4.1769 8.52418 3.96398 8.5903 3.76467C8.68992 3.46782 8.87112 3.20754 9.11165 3.01577C9.36347 2.81377 9.93174 2.57055 10.4146 2.52932C10.6395 2.51008 10.8659 2.52458 11.0869 2.57238C11.1927 2.59881 11.297 2.63138 11.3993 2.66994C11.4303 2.68193 11.4621 2.69158 11.4945 2.6988C11.6349 2.73101 11.7816 2.71816 11.9148 2.66197C12.0481 2.60577 12.1616 2.5089 12.2403 2.38425C12.3191 2.25959 12.3592 2.11308 12.3555 1.96421C12.3518 1.81534 12.3043 1.67119 12.2194 1.55094C12.2079 1.53491 12.161 1.46895 12.0915 1.38009C11.9618 1.21086 11.8198 1.05221 11.6666 0.905555C11.3059 0.568435 10.3712 1.51274e-06 9.14396 1.51274e-06C8.44164 -0.000530844 7.74583 0.13945 7.09485 0.412242C5.3967 1.11992 4.28584 2.08777 3.77511 2.60124L3.77113 2.60536C3.42747 2.95655 3.10928 3.33347 2.81915 3.73306C2.70947 3.89315 2.63817 4.07794 2.61114 4.27218C2.59852 4.35482 2.55653 4.42961 2.49342 4.48188C2.4303 4.53416 2.35059 4.56016 2.26992 4.5548H2.22168C1.98041 4.55313 1.7483 4.65028 1.57597 4.82504L0.272591 6.14009L0.258429 6.15475C0.0944764 6.33104 0.0020079 6.56563 3.23174e-05 6.81031C-0.00194327 7.05499 0.0867242 7.29115 0.247807 7.47025C0.256216 7.47941 0.264182 7.48811 0.273034 7.49682L2.37525 9.61894C2.54846 9.79458 2.78113 9.8932 3.02362 9.89376C3.26489 9.89543 3.497 9.79828 3.66934 9.62352L4.97315 8.30481C5.06011 8.2168 5.12909 8.1116 5.176 7.99546C5.22291 7.87932 5.24679 7.75461 5.24622 7.62873Z" fill="#002541"/>
</svg>
