<svg width="22" height="22" viewBox="0 0 22 22" fill="none" xmlns="http://www.w3.org/2000/svg">
<path d="M1.67768 15.9576C1.52603 15.9577 1.37761 15.9139 1.25031 15.8315C1.12302 15.749 1.02231 15.6315 0.960321 15.4931C0.210297 13.8181 -0.108624 11.9819 0.0326217 10.1521C0.173867 8.32218 0.770788 6.55673 1.76899 5.0166C2.76719 3.47647 4.13493 2.21062 5.74759 1.3344C7.36024 0.458173 9.16652 -0.000558742 11.0018 5.10738e-07C11.2102 5.10738e-07 11.41 0.0827695 11.5574 0.230099C11.7047 0.377429 11.7875 0.577251 11.7875 0.785607V10.9985C11.7875 11.1502 11.7436 11.2987 11.6611 11.426C11.5786 11.5533 11.461 11.6539 11.3225 11.7159L1.9983 15.8869C1.89763 15.9329 1.78835 15.957 1.67768 15.9576Z" fill="#002541"/>
<path d="M13.83 1.77673C13.7731 1.76518 13.7143 1.76641 13.6578 1.78034C13.6014 1.79426 13.5488 1.82054 13.5037 1.85727C13.4587 1.894 13.4223 1.94027 13.3973 1.99274C13.3723 2.04521 13.3593 2.10257 13.3592 2.16069V10.9988C13.3588 11.4536 13.2269 11.8987 12.9796 12.2804C12.7322 12.6621 12.3797 12.9642 11.9647 13.1504L3.49635 16.9399C3.44386 16.9634 3.39716 16.998 3.35953 17.0415C3.3219 17.0849 3.29427 17.1361 3.27858 17.1914C3.26289 17.2467 3.25954 17.3048 3.26874 17.3615C3.27795 17.4183 3.2995 17.4723 3.33187 17.5198C3.97995 18.473 4.78441 19.3098 5.71127 19.995C7.46735 21.3013 9.59927 22.0038 11.7879 21.9973C17.4193 21.9973 22.0008 17.4157 22.0008 11.7844C22.0008 6.85224 18.4862 2.72535 13.83 1.77673Z" fill="#002541"/>
</svg>
