<svg width="17" height="18" viewBox="0 0 17 18" fill="none" xmlns="http://www.w3.org/2000/svg">
<path d="M11.6318 1.30901C10.8366 0.464863 9.72593 0 8.5 0C7.26753 0 6.15317 0.462051 5.36162 1.30097C4.5615 2.14914 4.17166 3.30186 4.26319 4.54658C4.44463 7.00228 6.34523 8.99995 8.5 8.99995C10.6548 8.99995 12.5521 7.00268 12.7364 4.54738C12.8292 3.31391 12.4369 2.1636 11.6318 1.30901ZM15.6921 17.9999H1.30789C1.11961 18.0023 0.933159 17.9634 0.762092 17.8861C0.591025 17.8087 0.439648 17.6948 0.318975 17.5527C0.0533573 17.2405 -0.0537071 16.8142 0.0255696 16.3831C0.370464 14.502 1.44683 12.9218 3.13861 11.8124C4.6416 10.8277 6.54546 10.2857 8.5 10.2857C10.4545 10.2857 12.3584 10.8281 13.8614 11.8124C15.5532 12.9214 16.6295 14.5016 16.9744 16.3827C17.0537 16.8138 16.9466 17.2401 16.681 17.5523C16.5604 17.6945 16.409 17.8084 16.238 17.8859C16.0669 17.9633 15.8804 18.0023 15.6921 17.9999Z" fill="#002541"/>
</svg>
