<svg width="23" height="23" viewBox="0 0 23 23" fill="none" xmlns="http://www.w3.org/2000/svg">
<path d="M11.5 0C5.15897 0 0 5.15897 0 11.5C0 17.841 5.15897 23 11.5 23C17.841 23 23 17.841 23 11.5C23 5.15897 17.841 0 11.5 0ZM6.63462 16.6971C6.37217 16.6971 6.11563 16.6193 5.89742 16.4735C5.67921 16.3277 5.50913 16.1204 5.4087 15.878C5.30827 15.6355 5.28199 15.3687 5.33319 15.1113C5.38439 14.8539 5.51077 14.6175 5.69634 14.4319C5.88191 14.2463 6.11835 14.12 6.37574 14.0688C6.63314 14.0176 6.89994 14.0438 7.14241 14.1443C7.38487 14.2447 7.59211 14.4148 7.73791 14.633C7.88372 14.8512 7.96154 15.1078 7.96154 15.3702C7.96154 15.7221 7.82174 16.0596 7.57289 16.3085C7.32405 16.5573 6.98654 16.6971 6.63462 16.6971ZM6.63462 12.7716C6.37217 12.7716 6.11563 12.6938 5.89742 12.548C5.67921 12.4022 5.50913 12.195 5.4087 11.9525C5.30827 11.71 5.28199 11.4432 5.33319 11.1858C5.38439 10.9284 5.51077 10.692 5.69634 10.5064C5.88191 10.3209 6.11835 10.1945 6.37574 10.1433C6.63314 10.0921 6.89994 10.1184 7.14241 10.2188C7.38487 10.3192 7.59211 10.4893 7.73791 10.7075C7.88372 10.9257 7.96154 11.1823 7.96154 11.4447C7.96154 11.7966 7.82174 12.1341 7.57289 12.383C7.32405 12.6318 6.98654 12.7716 6.63462 12.7716ZM6.63462 8.73558C6.37217 8.73558 6.11563 8.65775 5.89742 8.51195C5.67921 8.36615 5.50913 8.15891 5.4087 7.91645C5.30827 7.67398 5.28199 7.40718 5.33319 7.14978C5.38439 6.89239 5.51077 6.65595 5.69634 6.47038C5.88191 6.2848 6.11835 6.15843 6.37574 6.10723C6.63314 6.05603 6.89994 6.0823 7.14241 6.18274C7.38487 6.28317 7.59211 6.45324 7.73791 6.67145C7.88372 6.88967 7.96154 7.14621 7.96154 7.40865C7.96154 7.76058 7.82174 8.09808 7.57289 8.34693C7.32405 8.59578 6.98654 8.73558 6.63462 8.73558ZM16.8077 16.1995H9.73077C9.49615 16.1995 9.27115 16.1063 9.10525 15.9404C8.93935 15.7745 8.84615 15.5495 8.84615 15.3149C8.84615 15.0803 8.93935 14.8553 9.10525 14.6894C9.27115 14.5235 9.49615 14.4303 9.73077 14.4303H16.8077C17.0423 14.4303 17.2673 14.5235 17.4332 14.6894C17.5991 14.8553 17.6923 15.0803 17.6923 15.3149C17.6923 15.5495 17.5991 15.7745 17.4332 15.9404C17.2673 16.1063 17.0423 16.1995 16.8077 16.1995ZM16.8077 12.274H9.73077C9.49615 12.274 9.27115 12.1808 9.10525 12.0149C8.93935 11.849 8.84615 11.624 8.84615 11.3894C8.84615 11.1548 8.93935 10.9298 9.10525 10.7639C9.27115 10.598 9.49615 10.5048 9.73077 10.5048H16.8077C17.0423 10.5048 17.2673 10.598 17.4332 10.7639C17.5991 10.9298 17.6923 11.1548 17.6923 11.3894C17.6923 11.624 17.5991 11.849 17.4332 12.0149C17.2673 12.1808 17.0423 12.274 16.8077 12.274ZM16.8077 8.29327H9.73077C9.49615 8.29327 9.27115 8.20007 9.10525 8.03417C8.93935 7.86827 8.84615 7.64327 8.84615 7.40865C8.84615 7.17404 8.93935 6.94903 9.10525 6.78314C9.27115 6.61724 9.49615 6.52404 9.73077 6.52404H16.8077C17.0423 6.52404 17.2673 6.61724 17.4332 6.78314C17.5991 6.94903 17.6923 7.17404 17.6923 7.40865C17.6923 7.64327 17.5991 7.86827 17.4332 8.03417C17.2673 8.20007 17.0423 8.29327 16.8077 8.29327Z" fill="#002541"/>
</svg>
