<svg width="30" height="30" viewBox="0 0 30 30" fill="none" xmlns="http://www.w3.org/2000/svg">
<path d="M15 0C6.71611 0 0 6.71611 0 15C0 23.2839 6.71611 30 15 30C23.2839 30 30 23.2839 30 15C30 6.71611 23.2839 0 15 0ZM21.0353 20.3834C19.9977 21.5413 18.6485 22.3759 17.1491 22.7873C15.6497 23.1988 14.0636 23.1696 12.5803 22.7034C11.097 22.2372 9.77938 21.3537 8.78497 20.1584C7.79056 18.9632 7.16144 17.5068 6.97284 15.9635C6.73424 16.1213 6.44549 16.185 6.16263 16.1419C5.87978 16.0989 5.62299 15.9524 5.44211 15.7307C5.26123 15.509 5.16916 15.228 5.18377 14.9423C5.19837 14.6566 5.31861 14.3865 5.52115 14.1844L7.22308 12.4825C7.4363 12.2693 7.72451 12.148 8.02601 12.1446C8.32752 12.1413 8.61836 12.256 8.8363 12.4644L10.6154 14.1663C10.8152 14.3559 10.9405 14.6107 10.9688 14.8847C10.9972 15.1586 10.9266 15.4336 10.7698 15.6601C10.613 15.8865 10.3804 16.0494 10.1141 16.1193C9.84768 16.1893 9.56507 16.1616 9.31731 16.0413C9.51494 17.1048 10.0066 18.0915 10.7366 18.8896C11.4665 19.6878 12.4056 20.2654 13.4472 20.557C14.4887 20.8485 15.5912 20.8423 16.6294 20.5391C17.6677 20.2359 18.6002 19.6479 19.3212 18.8416C19.5281 18.6227 19.8124 18.4935 20.1133 18.4814C20.4143 18.4693 20.708 18.5754 20.9318 18.777C21.1556 18.9785 21.2917 19.2596 21.311 19.5602C21.3304 19.8608 21.2314 20.157 21.0353 20.3856V20.3834ZM24.4796 15.8156L22.7776 17.5175C22.5644 17.7307 22.2762 17.852 21.9747 17.8554C21.6732 17.8587 21.3824 17.744 21.1644 17.5356L19.3853 15.8337C19.1894 15.6451 19.0664 15.3933 19.038 15.1229C19.0096 14.8524 19.0776 14.5806 19.2301 14.3554C19.3826 14.1302 19.6097 13.9661 19.8714 13.8921C20.1331 13.818 20.4125 13.8388 20.6603 13.9507C20.4622 12.8897 19.971 11.9053 19.2423 11.109C18.5136 10.3127 17.5765 9.73634 16.5372 9.44508C15.4979 9.15381 14.3977 9.15932 13.3614 9.46097C12.325 9.76263 11.3938 10.3484 10.6731 11.1519C10.5719 11.2647 10.4495 11.3565 10.3128 11.422C10.1762 11.4874 10.028 11.5254 9.87665 11.5336C9.72534 11.5418 9.5739 11.5201 9.43097 11.4698C9.28804 11.4194 9.15642 11.3415 9.04363 11.2403C8.93084 11.1391 8.83908 11.0167 8.7736 10.88C8.70812 10.7434 8.67019 10.5951 8.66199 10.4438C8.65379 10.2925 8.67547 10.1411 8.72579 9.99816C8.77611 9.85523 8.8541 9.72361 8.95529 9.61082C9.99374 8.45299 11.344 7.61907 12.8442 7.20896C14.3445 6.79885 15.9311 6.82993 17.4142 7.29847C18.8972 7.76702 20.2137 8.65318 21.206 9.85078C22.1984 11.0484 22.8244 12.5067 23.0091 14.051C23.2461 13.8894 23.5348 13.8219 23.8188 13.8616C24.1029 13.9013 24.362 14.0453 24.5456 14.2657C24.7292 14.486 24.8241 14.7668 24.8119 15.0534C24.7997 15.3399 24.6812 15.6117 24.4796 15.8156Z" fill="white"/>
</svg>
