<svg width="23" height="23" viewBox="0 0 23 23" fill="none" xmlns="http://www.w3.org/2000/svg">
<path d="M5.75 23H0.442308C0.198028 23 0 22.802 0 22.5577V17.25C0 17.0057 0.198028 16.8077 0.442308 16.8077H5.75C5.99428 16.8077 6.19231 17.0057 6.19231 17.25V22.5577C6.19231 22.802 5.99428 23 5.75 23Z" fill="#002541"/>
<path d="M14.1543 23H8.8466C8.60232 23 8.4043 22.802 8.4043 22.5577V17.25C8.4043 17.0057 8.60232 16.8077 8.8466 16.8077H14.1543C14.3986 16.8077 14.5966 17.0057 14.5966 17.25V22.5577C14.5966 22.802 14.3986 23 14.1543 23Z" fill="#002541"/>
<path d="M22.5586 23H17.2509C17.0066 23 16.8086 22.802 16.8086 22.5577V17.25C16.8086 17.0057 17.0066 16.8077 17.2509 16.8077H22.5586C22.8029 16.8077 23.0009 17.0057 23.0009 17.25V22.5577C23.0009 22.802 22.8029 23 22.5586 23Z" fill="#002541"/>
<path d="M5.75 14.5962H0.442308C0.198028 14.5962 0 14.3981 0 14.1539V8.84618C0 8.6019 0.198028 8.40387 0.442308 8.40387H5.75C5.99428 8.40387 6.19231 8.6019 6.19231 8.84618V14.1539C6.19231 14.3981 5.99428 14.5962 5.75 14.5962Z" fill="#002541"/>
<path d="M14.1543 14.5962H8.8466C8.60232 14.5962 8.4043 14.3981 8.4043 14.1539V8.84618C8.4043 8.6019 8.60232 8.40387 8.8466 8.40387H14.1543C14.3986 8.40387 14.5966 8.6019 14.5966 8.84618V14.1539C14.5966 14.3981 14.3986 14.5962 14.1543 14.5962Z" fill="#002541"/>
<path d="M22.5586 14.5962H17.2509C17.0066 14.5962 16.8086 14.3981 16.8086 14.1539V8.84618C16.8086 8.6019 17.0066 8.40387 17.2509 8.40387H22.5586C22.8029 8.40387 23.0009 8.6019 23.0009 8.84618V14.1539C23.0009 14.3981 22.8029 14.5962 22.5586 14.5962Z" fill="#002541"/>
<path d="M5.75 6.19235H0.442308C0.198028 6.19235 0 5.99432 0 5.75004V0.442352C0 0.198072 0.198028 4.48227e-05 0.442308 4.48227e-05H5.75C5.99428 4.48227e-05 6.19231 0.198072 6.19231 0.442352V5.75004C6.19231 5.99432 5.99428 6.19235 5.75 6.19235Z" fill="#002541"/>
<path d="M14.1543 6.19235H8.8466C8.60232 6.19235 8.4043 5.99432 8.4043 5.75004V0.442352C8.4043 0.198072 8.60232 4.48227e-05 8.8466 4.48227e-05H14.1543C14.3986 4.48227e-05 14.5966 0.198072 14.5966 0.442352V5.75004C14.5966 5.99432 14.3986 6.19235 14.1543 6.19235Z" fill="#002541"/>
<path d="M22.5586 6.19235H17.2509C17.0066 6.19235 16.8086 5.99432 16.8086 5.75004V0.442352C16.8086 0.198072 17.0066 4.48227e-05 17.2509 4.48227e-05H22.5586C22.8029 4.48227e-05 23.0009 0.198072 23.0009 0.442352V5.75004C23.0009 5.99432 22.8029 6.19235 22.5586 6.19235Z" fill="#002541"/>
</svg>
